<svg xmlns="http://www.w3.org/2000/svg" width="1661" height="794" style="cursor: move;"><g transform="translate(-290.02692819096103,-352.73928788573755) scale(1.5540145375680998)"><path class="link" marker-end="" d="M665.5,347, 850.5,407" style="stroke-width: 0.5; stroke-opacity: 1; stroke: rgb(80, 80, 80);"></path><path class="link" marker-end="" d="M665.5,387, 850.5,407" style="stroke-width: 0.5; stroke-opacity: 1; stroke: rgb(80, 80, 80);"></path><path class="link" marker-end="" d="M665.5,427, 850.5,407" style="stroke-width: 0.5; stroke-opacity: 1; stroke: rgb(80, 80, 80);"></path><path class="link" marker-end="" d="M850.5,367, 1035.5,387" style="stroke-width: 0.5; stroke-opacity: 1; stroke: rgb(80, 80, 80);"></path><path class="link" marker-end="" d="M850.5,407, 1035.5,387" style="stroke-width: 0.5; stroke-opacity: 1; stroke: rgb(80, 80, 80);"></path><path class="link" marker-end="" d="M665.5,347, 850.5,367" style="stroke-width: 0.5; stroke-opacity: 1; stroke: rgb(80, 80, 80);"></path><path class="link" marker-end="" d="M665.5,387, 850.5,367" style="stroke-width: 0.5; stroke-opacity: 1; stroke: rgb(80, 80, 80);"></path><path class="link" marker-end="" d="M665.5,427, 850.5,367" style="stroke-width: 0.5; stroke-opacity: 1; stroke: rgb(80, 80, 80);"></path><circle r="10" class="node" id="0_0" cx="665.5" cy="347" style="fill: rgb(197, 17, 17); stroke: rgb(51, 51, 51);"></circle><circle r="10" class="node" id="0_1" cx="665.5" cy="387" style="fill: rgb(197, 17, 17); stroke: rgb(51, 51, 51);"></circle><circle r="10" class="node" id="0_2" cx="665.5" cy="427" style="fill: rgb(197, 17, 17); stroke: rgb(51, 51, 51);"></circle><text class="text" dy=".35em" x="630.5" y="467" style="font-size: 12px;">Input Layer ∈ ℝ³</text><circle r="10" class="node" id="1_0" cx="850.5" cy="367" style="fill: rgb(197, 17, 17); stroke: rgb(51, 51, 51);"></circle><text class="text" dy=".35em" x="815.5" y="467" style="font-size: 12px;">Hidden Layer ∈ ℝ²</text><circle r="10" class="node" id="1_1" cx="850.5" cy="407" style="fill: rgb(197, 17, 17); stroke: rgb(51, 51, 51);"></circle><circle r="10" class="node" id="2_0" cx="1035.5" cy="387" style="fill: rgb(197, 17, 17); stroke: rgb(51, 51, 51);"></circle><text class="text" dy=".35em" x="1000.5" y="467" style="font-size: 12px;">Output Layer ∈ ℝ¹</text></g><defs><marker id="arrow" viewBox="0 -5 10 10" markerWidth="7" markerHeight="7" orient="auto" refX="40"><path d="M0,-5L10,0L0,5" style="stroke: rgb(80, 80, 80); fill: none;"></path></marker></defs></svg>